<?xml version="1.0" encoding="UTF-8" standalone="no"?>
<!-- Created with Inkscape (http://www.inkscape.org/) -->

<svg
   version="1.1"
   id="svg1"
   width="3157.0742"
   height="1216"
   viewBox="0 0 3157.0742 1216"
   xml:space="preserve"
   sodipodi:docname="ReviveAuto-1.svg"
   xmlns:inkscape="http://www.inkscape.org/namespaces/inkscape"
   xmlns:sodipodi="http://sodipodi.sourceforge.net/DTD/sodipodi-0.dtd"
   xmlns="http://www.w3.org/2000/svg"
   xmlns:svg="http://www.w3.org/2000/svg"><sodipodi:namedview
     id="namedview1"
     pagecolor="#505050"
     bordercolor="#eeeeee"
     borderopacity="1"
     inkscape:showpageshadow="0"
     inkscape:pageopacity="0"
     inkscape:pagecheckerboard="0"
     inkscape:deskcolor="#505050"><inkscape:page
       x="0"
       y="0"
       width="3157.0742"
       height="1216"
       id="page2"
       margin="0"
       bleed="0" /></sodipodi:namedview><defs
     id="defs1" /><g
     id="layer1"
     transform="translate(-32,322.5)"
     style="display:none"><circle
       style="opacity:1;fill:#2a78cb;fill-opacity:0.675896;stroke:none;stroke-width:0.227968;stroke-miterlimit:8.6;stroke-dasharray:none;stroke-dashoffset:13;stroke-opacity:1;paint-order:markers fill stroke"
       id="path4"
       cx="216"
       cy="189.5"
       r="216" /><path
       id="path3"
       style="opacity:1;fill:#ffc037;fill-opacity:1;stroke:none;stroke-width:0.4;stroke-miterlimit:8.6;stroke-dasharray:none;stroke-dashoffset:13;stroke-opacity:1;paint-order:markers fill stroke"
       d="m 315.16028,166.4079 c 0,0 17.75432,-11.50392 42.18416,-17.71261 -20.51984,-11.00239 -19.79729,-12.1187 -30.54057,-31.49496 -0.66807,3.34037 -1.90879,5.24916 -8.0169,5.3446 l -80.16898,-2.86318 82.07777,-0.57263 c 2.1951,-0.38176 3.53125,-2.6723 2.29054,-5.91723 L 299.69912,78.261121 c -6.07372,-9.448 -13.55567,-12.29529 -24.62333,-12.02535 15.6567,-0.13497 19.19734,0.49125 27.29563,8.58954 21.46047,21.460459 33.49042,48.359739 35.38002,48.089799 1.28223,-0.13497 0.0443,-10.27271 1.73147,-11.68991 10.79772,-1.8896 23.20613,3.11195 23.20613,3.11195 3.37429,2.96937 5.10179,12.56524 -0.29707,14.31987 l -19.74518,2.09569 c 0.13497,2.69943 16.22468,12.21622 16.22468,12.21622 21.3255,14.17201 23.47806,47.147 23.47806,47.147 l -0.19088,65.47134 c 0,0 0.59861,24.22519 -15.14887,26.03854 -3.7792,0.53989 -33.1434,-1.03345 -33.1434,-1.03345 0,0 28.67015,-1.15288 31.50455,-2.16516 8.37056,-2.07578 11.89071,-9.35015 12.77927,-23.60344 0,0 -5.05828,18.80153 -17.36995,19.08785 l -44.28382,2.48142 43.9851,-6.33173 c 0,0 8.64626,-2.23381 13.27846,-20.39125 l 5.72636,-28.44091 c 0,0 1.8914,-21.07906 -0.19088,-31.30408 -2.00365,-9.83888 -6.9659,-27.22104 -11.41996,-31.1352 0,0 -9.50312,24.29029 -18.35709,30.75345 0,0 -9.73481,9.16217 -27.67739,7.82602 l -14.31589,-2.29054 c 15.3074,-0.0747 29.64803,-2.31514 40.80169,-11.5295 7.03612,-5.81274 13.40781,-25.11918 13.40781,-25.11918 1.76,-10.55996 -29.55896,0.98517 -46.57436,7.97779 z m -156.03454,32.66311 c -25.29141,-12.59799 -29.82871,-19.84082 -29.82871,-19.84082 -5.3446,-6.29899 3.91418,-7.55841 3.91418,-7.55841 l 165.57758,-0.34357 c 0,0 12.26768,-0.72428 4.44166,7.86526 -12.50254,11.64359 -29.0991,18.51144 -29.0991,18.51144 25.57773,-9.83024 31.83128,-17.25998 31.83128,-17.25998 9.92568,-9.44849 2.36166,-13.65527 -4.31909,-14.03703 l -165.7329,0.53988 c 0,0 -21.75968,1.15274 -9.44801,14.03704 0,0 12.33455,11.40543 32.66311,18.08619 z M 264.67346,64.639391 c 0,0 -95.28989,-11.337606 -119.58476,1.61966 -24.29487,12.95726 -44.38045,56.858519 -44.38045,56.858519 l -0.28632,-9.25761 c 0,0 -0.477198,-3.34038 -3.149498,-3.1495 -2.6723,0.19088 -22.905425,-2.00422 -23.668939,8.4941 -0.763514,10.49832 5.24916,10.212 5.24916,10.212 l 14.602208,1.52703 c 0,0 -7.056769,9.56476 -12.459521,13.08244 -5.774989,3.76004 -11.846633,7.88812 -15.400144,13.79244 -4.435201,7.36929 -5.966195,16.76345 -6.212154,25.04408 -0.572635,19.27873 3.054056,40.65713 1.145271,53.82775 -1.908785,13.17062 -1.527028,43.90206 12.597984,44.4747 14.125012,0.57263 32.067593,-1.33615 32.067593,-1.33615 l -31.685836,-3.24494 c 0,0 -6.155833,-0.57263 -7.014787,-7.63514 -0.858953,-7.0625 -1.813346,-19.99452 -1.813346,-19.99452 0,0 6.546352,17.33654 13.600096,22.57139 3.637045,2.69918 13.17062,3.34037 13.17062,3.34037 l 41.134323,0.85895 -40.943445,-3.81757 c -9.16217,-1.71791 -19.374172,-12.31166 -22.905425,-25.95947 -3.531253,-13.64782 -9.353048,-38.46203 -6.680749,-61.94009 2.6723,-23.47806 12.788862,-27.67739 12.788862,-27.67739 0,0 1.908787,35.21708 35.503407,40.27537 21.56928,-0.38176 24.24157,-2.6723 24.24157,-2.6723 -22.23922,1.6348 -42.184151,-3.43581 -51.250882,-26.34123 -2.863178,-8.78041 -2.385981,-13.17062 -2.385981,-13.17062 0,0 11.929912,0.47719 44.092943,12.4071 C 105.19389,156.235 84.579009,148.6953 84.579009,148.6953 c 0,0 15.842921,-12.21623 20.614881,-20.99664 4.77196,-8.78041 7.0625,-11.26183 7.0625,-11.26183 0,0 -0.19087,4.19933 3.81758,4.3902 4.00844,0.19088 99.82947,-1.14528 99.82947,-1.14528 l -98.6842,-1.52702 c 0,0 -4.58109,0 -0.57264,-6.10811 4.00845,-6.10811 19.08785,-38.939219 34.16726,-44.092939 15.0794,-5.15372 113.8596,-3.31429 113.8596,-3.31429 z" /></g><g
     id="layer2"
     style="display:none"
     transform="translate(-32,296)"><rect
       style="display:none;opacity:1;fill:#ebf3fa;fill-opacity:1;stroke:none;stroke-width:0.533333;stroke-miterlimit:8.6;stroke-dasharray:none;stroke-dashoffset:13;stroke-opacity:1;paint-order:markers fill stroke"
       id="rect4"
       width="576"
       height="576"
       x="0"
       y="0"
       ry="100.83951" /><path
       id="path52"
       style="opacity:1;fill:#e97302;fill-opacity:1;stroke:#ffffff;stroke-width:4;stroke-linecap:square;stroke-miterlimit:5.1;stroke-dasharray:none;stroke-dashoffset:13;stroke-opacity:1;paint-order:normal"
       d="m 304,192 c -8.864,0 -16,7.136 -16,16 v 32 160 32 c 0,8.864 7.136,16 16,16 h 32 c 8.864,0 16,-7.136 16,-16 v -64 c 0,-8.864 7.136,-16 16,-16 h 32.64844 C 409.20698,352.34065 416,359.35498 416,368 v 64 c 0,8.864 7.136,16 16,16 h 32 c 8.864,0 16,-7.136 16,-16 V 400 240 208 c 0,-8.864 -7.136,-16 -16,-16 h -32 -96 z m 64,48 h 32 c 8.864,0 16,7.136 16,16 v 32 c 0,8.864 -7.136,16 -16,16 h -32 c -8.864,0 -16,-7.136 -16,-16 v -32 c 0,-8.864 7.136,-16 16,-16 z" /><path
       id="path38"
       style="display:inline;opacity:1;fill:#fdb349;fill-opacity:1;stroke:#ffffff;stroke-width:4;stroke-miterlimit:8.6;stroke-dasharray:none;stroke-dashoffset:13;stroke-opacity:1;paint-order:markers fill stroke"
       d="m 144,128 c -8.864,0 -16,7.136 -16,16 v 288 c 0,8.864 7.136,16 16,16 h 32 c 8.864,0 16,-7.136 16,-16 v -32 -32 c 0,-8.864 7.136,-16 16,-16 h 31.25 0.75 c 8.864,0 16,7.136 16,16 v 2.375 29.625 32 c 0,8.864 7.136,16 16,16 h 32 c 8.864,0 16,-7.136 16,-16 V 320 c 0,-8.864 -7.136,-16 -16,-16 h -16 -16 -40 c -4.432,0 -8,-3.568 -8,-8 0,-4.432 3.568,-8 8,-8 h 56 16 c 9.47021,0 16,-7.56677 16,-16 V 144 c 0,-8.864 -7.136,-16 -16,-16 h -32 -96 z m 64,64 h 32 c 8.864,0 16,7.136 16,16 v 32 c 0,8.864 -7.136,16 -16,16 h -32 c -8.864,0 -16,-7.136 -16,-16 v -32 c 0,-8.864 7.136,-16 16,-16 z" /><rect
       style="opacity:1;fill:#e97302;fill-opacity:1;stroke:#ffffff;stroke-width:4;stroke-linecap:square;stroke-miterlimit:5.1;stroke-dasharray:none;stroke-dashoffset:13;stroke-opacity:1;paint-order:normal"
       id="rect58"
       width="152"
       height="32"
       x="328"
       y="127"
       ry="15.058824" /></g><g
     id="g61"
     transform="translate(-32,296)"
     style="display:inline"><rect
       style="display:inline;opacity:1;fill:#fbbf3f;fill-opacity:1;stroke:none;stroke-width:1.12592;stroke-miterlimit:8.6;stroke-dasharray:none;stroke-dashoffset:13;stroke-opacity:1;paint-order:markers fill stroke"
       id="rect60"
       width="1216"
       height="1216"
       x="32"
       y="-296"
       ry="212.88339" /><g
       id="g12"
       style="display:none"><rect
         style="opacity:1;fill:none;fill-opacity:1;stroke:none;stroke-width:0;stroke-linecap:square;stroke-miterlimit:5.1;stroke-dasharray:none;stroke-dashoffset:0;stroke-opacity:1;paint-order:stroke fill markers"
         id="rect2"
         width="64"
         height="64"
         x="32"
         y="-296" /><rect
         style="opacity:1;fill:none;fill-opacity:1;stroke:none;stroke-width:0;stroke-linecap:square;stroke-miterlimit:5.1;stroke-dasharray:none;stroke-dashoffset:0;stroke-opacity:1;paint-order:stroke fill markers"
         id="rect3"
         width="64"
         height="64"
         x="160"
         y="-168" /><rect
         style="opacity:1;fill:none;fill-opacity:1;stroke:none;stroke-width:0;stroke-linecap:square;stroke-miterlimit:5.1;stroke-dasharray:none;stroke-dashoffset:0;stroke-opacity:1;paint-order:stroke fill markers"
         id="rect5"
         width="64"
         height="64"
         x="288"
         y="-40" /><rect
         style="opacity:1;fill:none;fill-opacity:1;stroke:none;stroke-width:0;stroke-linecap:square;stroke-miterlimit:5.1;stroke-dasharray:none;stroke-dashoffset:0;stroke-opacity:1;paint-order:stroke fill markers"
         id="rect6"
         width="64"
         height="64"
         x="416"
         y="88" /><rect
         style="opacity:1;fill:none;fill-opacity:1;stroke:none;stroke-width:0;stroke-linecap:square;stroke-miterlimit:5.1;stroke-dasharray:none;stroke-dashoffset:0;stroke-opacity:1;paint-order:stroke fill markers"
         id="rect7"
         width="64"
         height="64"
         x="544"
         y="216" /><rect
         style="opacity:1;fill:none;fill-opacity:1;stroke:none;stroke-width:0;stroke-linecap:square;stroke-miterlimit:5.1;stroke-dasharray:none;stroke-dashoffset:0;stroke-opacity:1;paint-order:stroke fill markers"
         id="rect8"
         width="64"
         height="64"
         x="672"
         y="344" /><rect
         style="opacity:1;fill:none;fill-opacity:1;stroke:none;stroke-width:0;stroke-linecap:square;stroke-miterlimit:5.1;stroke-dasharray:none;stroke-dashoffset:0;stroke-opacity:1;paint-order:stroke fill markers"
         id="rect9"
         width="64"
         height="64"
         x="800"
         y="472" /><rect
         style="opacity:1;fill:none;fill-opacity:1;stroke:none;stroke-width:0;stroke-linecap:square;stroke-miterlimit:5.1;stroke-dasharray:none;stroke-dashoffset:0;stroke-opacity:1;paint-order:stroke fill markers"
         id="rect10"
         width="64"
         height="64"
         x="1056"
         y="728" /><rect
         style="opacity:1;fill:none;fill-opacity:1;stroke:none;stroke-width:0;stroke-linecap:square;stroke-miterlimit:5.1;stroke-dasharray:none;stroke-dashoffset:0;stroke-opacity:1;paint-order:stroke fill markers"
         id="rect11"
         width="64"
         height="64"
         x="928"
         y="600" /><rect
         style="opacity:1;fill:none;fill-opacity:1;stroke:none;stroke-width:0;stroke-linecap:square;stroke-miterlimit:5.1;stroke-dasharray:none;stroke-dashoffset:0;stroke-opacity:1;paint-order:stroke fill markers"
         id="rect12"
         width="64"
         height="64"
         x="1184"
         y="856" /></g></g><g
     id="layer3"
     style="display:inline"><g
       id="g2"
       transform="translate(-31.999995,337.92773)"
       style="fill:#00184b;fill-opacity:1"><path
         id="path57"
         style="fill:#00184b;fill-opacity:1;stroke-width:0.1;stroke-linecap:square;stroke-miterlimit:5.1;paint-order:stroke fill markers"
         d="m 278.73731,334.07227 c -8.864,0 -16,7.136 -16,16 v 32 160 32 c 0,8.864 7.136,16 16,16 h 32 c 8.864,0 16,-7.136 16,-16 v -64 c 0,-8.864 7.136,-16 16,-16 h 32.64844 c 8.55854,0.3407 15.35156,7.355 15.35156,16 v 64 c 0,8.864 7.136,16 16,16 h 32 c 8.864,0 16,-7.136 16,-16 v -32 -160 -32 c 0,-8.864 -7.136,-16 -16,-16 h -32 -96 z m 463.94531,0 c -8.77298,0 -15.84185,6.99316 -15.98634,15.73046 l 0.0274,32.53711 c -0.1435,8.73821 -7.2127,15.73243 -15.98634,15.73243 h -32 c -8.86399,0 -16,7.136 -16,16 v 16 c 0,8.864 7.13601,16 16,16 h 32 c 8.86401,0 16,7.136 16,16 v 112 c 0,8.864 7.13601,16 16,16 h 81.75587 c 8.0311,-0.8698 14.24413,-7.6305 14.24413,-15.90039 v -16 c 0,-8.86401 -7.13599,-16 -16,-16 h -48 v -0.0996 h 16 c -8.86399,0 -16,-7.136 -16,-16 v -64 c 0,-8.864 7.13601,-16 16,-16 h 32 c 8.86401,0 16,-7.136 16,-16 v -16 c 0,-8.864 -7.13599,-16 -16,-16 h -32 c -8.86399,0 -16,-7.136 -16,-16 v -32 c 0,-8.864 -7.13599,-16 -16,-16 z m -399.94531,48 h 32 c 8.864,0 16,7.136 16,16 v 32 c 0,8.864 -7.136,16 -16,16 h -32 c -8.864,0 -16,-7.136 -16,-16 v -32 c 0,-8.864 7.136,-16 16,-16 z m 160,16 c -8.864,0 -16,7.136 -16,16 v 160 c 0,8.864 7.136,16 16,16 H 630.7373 c 8.86401,0 16,-7.136 16,-16 v -160 c 0,-8.864 -7.13599,-16 -16,-16 h -16 c -8.86399,0 -16,7.136 -16,16 v 112 c 0,8.864 -7.13599,16 -16,16 h -31.99999 c -8.864,0 -16,-7.136 -16,-16 v -112 c 0,-8.864 -7.136,-16 -16,-16 z m 406.73633,0 c -29.85769,0 -53.89453,28.544 -53.89453,64 v 64 c 0,35.456 24.03684,64 53.89453,64 h 53.89453 c 29.85768,0 53.89453,-28.544 53.89453,-64 v -64 c 0,-35.456 -24.03685,-64 -53.89453,-64 z m 10.10547,48 h 33.68358 c 9.33054,0 16.84375,8.92 16.84375,20 v 56 c 0,11.08 -7.51321,20 -16.84375,20 h -33.68358 c -9.33052,0 -16.84181,-8.92 -16.84181,-20 v -56 c 0,-11.08 7.51129,-20 16.84181,-20 z" /><path
         id="path56"
         style="display:inline;opacity:1;fill:#00184b;fill-opacity:1;stroke:none;stroke-width:0;stroke-linecap:square;stroke-miterlimit:5.1;stroke-dasharray:none;stroke-dashoffset:13;stroke-opacity:1;paint-order:normal"
         d="m 140.14159,-49.927734 c -8.864,0 -16,7.136 -16,16 V 254.07227 c 0,8.864 7.136,16 16,16 h 32 c 8.864,0 16,-7.136 16,-16 v -32 -32 c 0,-8.864 7.136,-16 16,-16 h 31.25 0.75 c 8.864,0 16,7.136 16,16 v 2.375 29.625 32 c 0,8.864 7.136,16 16,16 h 32 c 8.864,0 16,-7.136 16,-16 v -112 c 0,-8.864 -7.136,-16 -16,-16 h -16 -16 -40 c -4.432,0 -8,-3.568 -8,-8 0,-4.432 3.568,-8 8,-8 h 56 16 c 9.47021,0 16,-7.56677 16,-16.000004 v -128 c 0,-8.864 -7.136,-16 -16,-16 h -32 -96 z m 64,64 h 32 c 8.864,0 16,7.136 16,16 v 32 c 0,8.864 -7.136,16 -16,16 h -32 c -8.864,0 -16,-7.136 -16,-16 v -32 c 0,-8.864 7.136,-16 16,-16 z m 559.17773,63.662109 a 24,23.638063 0 0 0 -24,23.638675 24,23.638063 0 0 0 24,23.63672 24,23.638063 0 0 0 24,-23.63672 24,23.638063 0 0 0 -24,-23.638675 z m -407.66211,0.337891 c -8.34258,0 -15.05859,6.716013 -15.05859,15.058593 V 255.01367 c 0,8.34258 6.71601,15.0586 15.05859,15.0586 h 115.6836 c 8.34258,0 15.02167,-6.7161 15.05859,-15.0586 l 0.10352,-34.94531 c -0.54241,-7.84228 -7.0328,-13.99609 -15.01758,-13.99609 h -10.02735 c -8.34258,0 -15.05859,6.71601 -15.05859,15.05859 v 8.94141 c 0,4.432 -3.568,8 -8,8 h -41 c -8.34258,0 -15,-6.71602 -15,-15.0586 v -17.88281 c 0,-8.34258 6.71601,-15.05859 15.05859,-15.05859 h 73.88282 c 8.34258,0 15.05859,-6.71602 15.05859,-15.0586 V 93.130859 c 0,-8.34258 -6.71601,-15.058593 -15.05859,-15.058593 z m 167.59571,0 c -9.53556,0 -13.70804,6.394508 -11.86719,15.230468 l 33.68945,161.710936 c 1.78458,8.56579 9.85273,15.0586 18.19531,15.0586 h 57.88282 c 8.34258,0 15.05859,-6.71602 15.05859,-15.0586 V 134.11133 c 0,-4.45375 3.568,-8.03906 8,-8.03906 h 9.04492 c 8.34258,0 15.0586,-6.71602 15.0586,-15.0586 V 93.130859 c 0,-8.34257 -6.71602,-15.058593 -15.0586,-15.058593 h -49.93359 c -8.34258,0 -15.05859,6.716013 -15.0586,15.058593 V 78.072266 l -0.0527,137.494144 c -0.19675,5.81807 -3.39916,6.6013 -4.62109,0.50586 L 559.25682,93.423828 c -1.61584,-8.1444 -6.84411,-15.351562 -18.10351,-15.351562 z m 317.18164,0 c -9.53556,0 -13.70804,6.394508 -11.86719,15.230468 l 33.68945,161.710936 c 1.78458,8.56579 9.85274,15.0586 18.19531,15.0586 h 57.88278 c 8.3426,0 15.0586,-6.71602 15.0586,-15.0586 V 134.11133 c 0,-4.45375 3.568,-8.03906 8,-8.03906 h 9.045 c 8.3426,0 15.0585,-6.71602 15.0585,-15.0586 V 93.130859 c 0,-8.34257 -6.7159,-15.058593 -15.0585,-15.058593 h -49.93364 c -8.34258,0 -15.05859,6.716013 -15.05859,15.058593 V 78.072266 l -0.0527,137.494144 c -0.19675,5.81807 -3.39916,6.6013 -4.62109,0.50586 L 876.43846,93.423828 c -1.61584,-8.14442 -6.84411,-15.351562 -18.10351,-15.351562 z m 184.57814,0 c -8.3426,0 -15.0586,6.716013 -15.0586,15.058593 V 255.01367 c 0,8.34258 6.716,15.0586 15.0586,15.0586 h 115.6836 c 8.3426,0 15.0217,-6.7161 15.0586,-15.0586 l 0.1035,-34.94531 c -0.5424,-7.84228 -7.0328,-13.99609 -15.0176,-13.99609 h -10.0273 c -8.3426,0 -15.0586,6.71601 -15.0586,15.05859 v 8.94141 c 0,4.432 -3.568,8 -8,8 h -41 c -8.3426,0 -15,-6.71602 -15,-15.0586 v -17.88281 c 0,-8.34258 6.716,-15.05859 15.0586,-15.05859 h 73.8828 c 8.3426,0 15.0586,-6.71602 15.0586,-15.0586 V 93.130859 c 0,-8.34258 -6.716,-15.058593 -15.0586,-15.058593 z M 393.35839,110.07227 h 40.38476 c 4.09108,0 7.38477,3.29368 7.38477,7.38476 v 33.23047 c 0,4.09108 -3.29369,7.38477 -7.38477,7.38477 h -40.38476 c -4.09108,0 -7.38477,-3.29369 -7.38477,-7.38477 v -33.23047 c 0,-4.09108 3.29369,-7.38476 7.38477,-7.38476 z m 669.35541,0 h 40.3848 c 4.0911,0 7.3848,3.29368 7.3848,7.38476 v 33.23047 c 0,4.09108 -3.2937,7.38477 -7.3848,7.38477 h -40.3848 c -4.0911,0 -7.3847,-3.29369 -7.3847,-7.38477 v -33.23047 c 0,-4.09108 3.2936,-7.38476 7.3847,-7.38476 z m -318.89448,22.91211 c -4.432,0 -8,3.56799 -8,8 v 16.97656 c -0.0265,7.18356 -4.77539,11.39648 -4.77539,11.39648 l -60.46484,60.46485 c -1.11583,1.11584 -1.80469,2.65916 -1.80469,4.36914 v 29.70898 c 0,3.41995 2.75388,6.17188 6.17383,6.17188 h 29.70898 c 1.70997,0 3.25335,-0.68693 4.36914,-1.80274 l 34.61719,-34.61719 a 5.566411,5.566411 0 0 1 3.67578,-1.42187 5.566411,5.566411 0 0 1 5.56641,5.56641 v 26.69921 0.22852 c 0,2.43374 1.73842,4.44195 4.04687,4.86328 0.38411,0.0891 0.77944,0.14648 1.19141,0.14649 h 31.57617 c 0.21226,0 0.41362,-0.0382 0.61914,-0.0625 h 20.69922 c 2.74162,0 4.94922,-2.20565 4.94922,-4.94727 v -32.1582 c 0,-2.74163 -2.2076,-4.94922 -4.94922,-4.94922 h -12.07812 c -4.43211,0 -8,-3.568 -8,-8 v -38.13281 -11.3086 -29.1914 c 0,-4.43201 -3.568,-8 -8,-8 z" /></g></g><g
     id="text1"
     style="font-weight:900;font-size:467.876px;font-family:'SFMono Nerd Font Mono';-inkscape-font-specification:'SFMono Nerd Font Mono Heavy';display:inline;fill:#00184b;stroke-width:0.974743;stroke-linecap:square;stroke-miterlimit:5.1;paint-order:stroke fill markers"
     aria-label="Revive&#10;Auto"><path
       d="m 1580.5058,391.42459 55.5146,115.36981 h 94.1235 l -64.8812,-127.70639 c 34.4967,-15.07803 56.1999,-50.94548 56.1999,-93.20967 0,-68.07962 -46.1479,-108.74462 -123.1373,-108.74462 H 1471.7612 V 506.7944 h 83.843 V 391.42459 Z m -24.9016,-151.00881 h 30.8415 c 30.613,0 49.3463,17.36258 49.3463,45.2341 0,28.55689 -18.9618,46.60484 -49.1179,46.60484 h -31.0699 z m 369.1834,191.44536 c -2.7414,13.47885 -20.104,23.53087 -40.4365,23.53087 -25.3585,0 -42.4927,-16.90568 -42.4927,-42.03574 v -15.7634 h 157.8625 v -41.12191 c 0,-65.33815 -46.6048,-109.88689 -114.9129,-109.88689 -72.8772,0 -121.5381,44.32028 -121.5381,110.80071 v 42.03573 c 0,72.19181 44.0918,113.31373 121.5381,113.31373 63.2821,0 111.943,-34.26827 115.3698,-80.8731 z m -41.8072,-127.93485 c 24.9016,0 39.7511,17.8195 39.7511,47.2902 h -80.8731 c 0,-29.4707 15.3065,-47.2902 41.122,-47.2902 z m 154.2071,-51.40239 85.6707,254.2705 h 93.2097 l 84.7568,-254.2705 h -84.9853 l -43.178,181.85024 h -4.3407 L 2124.2289,252.5239 Z m 424.2411,-45.91947 c 31.2983,0 50.9455,-16.90568 50.9455,-44.09183 0,-27.18616 -19.6472,-44.09184 -50.9455,-44.09184 -31.2983,0 -50.9455,16.90568 -50.9455,44.09184 0,27.18615 19.6472,44.09183 50.9455,44.09183 z M 2571.7724,506.7944 V 446.48226 H 2500.266 V 252.5239 h -148.9527 v 60.31214 h 71.0495 v 133.64622 h -77.6747 v 60.31214 z m 43.8634,-254.2705 85.6706,254.2705 h 93.2097 l 84.7568,-254.2705 h -84.9853 l -43.178,181.85024 h -4.3406 L 2702.6772,252.5239 Z m 466.0483,179.33724 c -2.7414,13.47885 -20.104,23.53087 -40.4365,23.53087 -25.3585,0 -42.4927,-16.90568 -42.4927,-42.03574 v -15.7634 h 157.8625 v -41.12191 c 0,-65.33815 -46.6048,-109.88689 -114.9129,-109.88689 -72.8772,0 -121.5381,44.32028 -121.5381,110.80071 v 42.03573 c 0,72.19181 44.0918,113.31373 121.5381,113.31373 63.282,0 111.943,-34.26827 115.3698,-80.8731 z m -41.8073,-127.93485 c 24.9016,0 39.7512,17.8195 39.7512,47.2902 h -80.8731 c 0,-29.4707 15.3065,-47.2902 41.1219,-47.2902 z"
       id="path2"
       style="display:inline" /><path
       d="m 1643.7879,1091.6394 h 91.382 l -93.4381,-329.66067 h -102.5763 l -93.2097,329.66067 h 83.1577 l 15.7634,-72.4202 h 83.6145 z m -58.713,-255.41277 h 4.3407 l 26.0439,122.68038 h -57.3423 z m 415.3314,1.14228 h -80.6447 v 145.29743 c 0,30.38456 -15.5349,48.88936 -40.8934,48.88936 -26.2724,0 -38.8374,-15.5349 -38.8374,-47.97554 V 837.36891 h -80.8731 v 164.25919 c 0,62.5967 29.6992,95.9511 84.9853,95.9511 35.1821,0 61.6829,-17.1341 73.3341,-47.2902 h 4.3406 v 41.3504 h 78.5886 z m 108.973,-75.39018 v 78.817 h -65.3381 v 60.08369 h 65.3381 v 107.60238 c 0,62.3682 24.6732,83.1576 98.2357,83.1576 h 64.6528 v -59.1699 h -57.5707 c -15.5349,0 -24.6731,-8.4528 -24.6731,-22.617 V 900.87942 h 86.8129 v -60.08369 h -88.869 v -78.817 z m 348.8509,335.60047 c 75.3902,0 122.452,-43.4064 122.452,-113.08522 v -39.97964 c 0,-69.6788 -47.0618,-113.08527 -122.452,-113.08527 -75.3901,0 -122.4519,43.40647 -122.4519,113.08527 v 39.97964 c 0,69.67882 47.0618,113.08522 122.4519,113.08522 z m 0,-205.15262 c 26.7293,0 43.4065,21.01787 43.4065,54.14386 v 35.86744 c 0,33.12602 -16.6772,54.14382 -43.4065,54.14382 -26.7292,0 -43.4064,-21.0178 -43.4064,-54.14382 v -35.86744 c 0,-33.12599 16.6772,-54.14386 43.4064,-54.14386 z"
       id="path5"
       style="display:inline" /></g></svg>
